<?xml version="1.0" standalone="no"?>
<!DOCTYPE svg PUBLIC "-//W3C//DTD SVG 20010904//EN"
 "http://www.w3.org/TR/2001/REC-SVG-20010904/DTD/svg10.dtd">
<svg version="1.0" xmlns="http://www.w3.org/2000/svg"
 width="1024.000000pt" height="1024.000000pt" viewBox="0 0 1024.000000 1024.000000"
 preserveAspectRatio="xMidYMid meet">
<metadata>
Created by potrace 1.11, written by Peter Selinger 2001-2013
</metadata>
<g transform="translate(0.000000,1024.000000) scale(0.100000,-0.100000)"
fill="#000000" stroke="none">
<path d="M4702 9159 c-243 -43 -448 -239 -497 -474 -42 -198 16 -388 164 -536
125 -126 263 -183 436 -183 183 1 319 57 445 183 118 119 174 252 174 416 0
44 -6 105 -13 135 -49 204 -222 383 -431 444 -69 20 -208 28 -278 15z"/>
<path d="M2435 8450 c-3 -6 -1 -25 5 -43 17 -51 921 -7268 915 -7304 -4 -25
-2 -33 9 -33 18 0 13 -17 80 281 289 1276 444 2233 496 3054 13 208 13 724 0
896 -34 437 -106 769 -237 1104 -127 321 -265 556 -638 1085 -263 373 -445
655 -574 893 -24 42 -44 77 -46 77 -2 0 -7 -5 -10 -10z"/>
<path d="M6185 7368 c-344 -34 -688 -160 -925 -336 -379 -283 -594 -696 -676
-1297 -22 -163 -26 -644 -6 -840 94 -931 432 -2079 993 -3369 39 -89 80 -185
92 -213 12 -29 26 -52 31 -50 5 2 14 23 21 48 7 24 218 611 469 1304 866 2385
1618 4460 1623 4476 4 13 -18 26 -99 57 -280 110 -639 193 -958 222 -136 12
-437 11 -565 -2z"/>
</g>
</svg>
